<svg width="434" height="96" viewBox="0 0 434 96" fill="none" xmlns="http://www.w3.org/2000/svg">
<path d="M39.5751 96C39.1577 96 38.7359 95.9413 38.3299 95.82C36.9069 95.3938 36.018 94.2956 36.1477 93.123L39.6802 61.1409H3.44099C2.31035 61.1409 1.25195 60.7129 0.60952 59.9957C-0.0329125 59.2785 -0.177405 58.3641 0.223233 57.549L27.6637 1.71281C28.1704 0.681938 29.4514 0 30.8812 0H87.4579C88.6116 0 89.6878 0.4455 90.3254 1.1865C90.9629 1.9275 91.0765 2.86556 90.6275 3.68419L78.6107 25.6048H104.611C105.922 25.6048 107.119 26.1793 107.698 27.0861C108.277 27.9928 108.137 29.0747 107.337 29.8753L95.4614 41.7606C94.3018 42.9214 92.1415 43.137 90.636 42.2436C89.1302 41.3497 88.8498 39.6846 90.0094 38.5241L97.6179 30.9094H73.4212C72.2674 30.9094 71.1913 30.4639 70.5537 29.7229C69.9161 28.9819 69.8025 28.0438 70.2516 27.2252L82.2688 5.30419H33.2576L8.42356 55.8364H43.4263C44.3898 55.8364 45.3088 56.1478 45.9605 56.6944C46.6122 57.2413 46.9367 57.9735 46.8547 58.7134L43.9982 84.5751L73.6661 54.882C74.826 53.7214 76.986 53.5056 78.4915 54.399C79.9973 55.2928 80.2775 56.958 79.1182 58.1184L42.3017 94.9659C41.6359 95.6325 40.6199 96 39.5751 96Z" fill="#232F68"/>
<path d="M57.8645 47.8437H23.7188L40.2987 13.2766H65.6951L52.0164 38.8431H75.1092L54.4311 63.3192L57.8645 47.8437Z" fill="#02A09A"/>
<path d="M54.5336 66.383C54.1078 66.383 53.6771 66.3207 53.2622 66.1899C51.7597 65.7173 50.8843 64.4829 51.1635 63.2308L53.965 50.675H23.1882C22.0636 50.675 21.0109 50.2412 20.3719 49.5143C19.7329 48.7875 19.5892 47.8607 19.9877 47.0348L36.9097 11.9487C37.4134 10.9039 38.6876 10.2128 40.1102 10.2128H66.0316C67.1792 10.2128 68.2496 10.6643 68.8837 11.4153C69.5179 12.1663 69.6309 13.117 69.184 13.9466L57.2316 36.1629H75.6402C76.9025 36.1629 78.0626 36.7089 78.6576 37.583C79.253 38.4571 79.1874 39.5181 78.4868 40.3426L57.3809 65.1864C56.7305 65.9522 55.6502 66.383 54.5336 66.383ZM28.1436 45.2991H58.039C59.0499 45.2991 60.0092 45.6501 60.6596 46.2582C61.3095 46.8663 61.5843 47.6691 61.4099 48.4509L60.7116 51.5807L69.2425 41.539H52.0703C50.9228 41.539 49.8519 41.0875 49.2182 40.3365C48.5843 39.5855 48.4716 38.6348 48.9182 37.8051L60.8703 15.5889H42.4736L28.1436 45.2991Z" fill="#232F68"/>
<path d="M83.896 56.04C83.896 54.2053 84.2373 52.5947 84.92 51.208C85.624 49.8213 86.5733 48.7547 87.768 48.008C88.9627 47.2613 90.296 46.888 91.768 46.888C93.0267 46.888 94.1253 47.144 95.064 47.656C96.024 48.168 96.76 48.84 97.272 49.672V47.144H102.744V65H97.272V62.472C96.7387 63.304 95.992 63.976 95.032 64.488C94.0933 65 92.9947 65.256 91.736 65.256C90.2853 65.256 88.9627 64.8827 87.768 64.136C86.5733 63.368 85.624 62.2907 84.92 60.904C84.2373 59.496 83.896 57.8747 83.896 56.04ZM97.272 56.072C97.272 54.7067 96.888 53.6293 96.12 52.84C95.3733 52.0507 94.456 51.656 93.368 51.656C92.28 51.656 91.352 52.0507 90.584 52.84C89.8373 53.608 89.464 54.6747 89.464 56.04C89.464 57.4053 89.8373 58.4933 90.584 59.304C91.352 60.0933 92.28 60.488 93.368 60.488C94.456 60.488 95.3733 60.0933 96.12 59.304C96.888 58.5147 97.272 57.4373 97.272 56.072ZM116.975 49.672C117.508 48.84 118.244 48.168 119.183 47.656C120.121 47.144 121.22 46.888 122.479 46.888C123.951 46.888 125.284 47.2613 126.479 48.008C127.673 48.7547 128.612 49.8213 129.295 51.208C129.999 52.5947 130.351 54.2053 130.351 56.04C130.351 57.8747 129.999 59.496 129.295 60.904C128.612 62.2907 127.673 63.368 126.479 64.136C125.284 64.8827 123.951 65.256 122.479 65.256C121.241 65.256 120.143 65 119.183 64.488C118.244 63.976 117.508 63.3147 116.975 62.504V73.512H111.503V47.144H116.975V49.672ZM124.783 56.04C124.783 54.6747 124.399 53.608 123.631 52.84C122.884 52.0507 121.956 51.656 120.847 51.656C119.759 51.656 118.831 52.0507 118.063 52.84C117.316 53.6293 116.943 54.7067 116.943 56.072C116.943 57.4373 117.316 58.5147 118.063 59.304C118.831 60.0933 119.759 60.488 120.847 60.488C121.935 60.488 122.863 60.0933 123.631 59.304C124.399 58.4933 124.783 57.4053 124.783 56.04ZM175.043 42.536V65H169.571V51.528L164.547 65H160.131L155.075 51.496V65H149.603V42.536H156.067L162.371 58.088L168.611 42.536H175.043ZM191.906 65.256C190.156 65.256 188.578 64.8827 187.17 64.136C185.783 63.3893 184.684 62.3227 183.874 60.936C183.084 59.5493 182.69 57.928 182.69 56.072C182.69 54.2373 183.095 52.6267 183.906 51.24C184.716 49.832 185.826 48.7547 187.234 48.008C188.642 47.2613 190.22 46.888 191.97 46.888C193.719 46.888 195.298 47.2613 196.706 48.008C198.114 48.7547 199.223 49.832 200.034 51.24C200.844 52.6267 201.25 54.2373 201.25 56.072C201.25 57.9067 200.834 59.528 200.002 60.936C199.191 62.3227 198.071 63.3893 196.642 64.136C195.234 64.8827 193.655 65.256 191.906 65.256ZM191.906 60.52C192.951 60.52 193.836 60.136 194.562 59.368C195.308 58.6 195.682 57.5013 195.682 56.072C195.682 54.6427 195.319 53.544 194.594 52.776C193.89 52.008 193.015 51.624 191.97 51.624C190.903 51.624 190.018 52.008 189.314 52.776C188.61 53.5227 188.258 54.6213 188.258 56.072C188.258 57.5013 188.599 58.6 189.282 59.368C189.986 60.136 190.86 60.52 191.906 60.52ZM214.425 49.672C214.937 48.84 215.673 48.168 216.633 47.656C217.593 47.144 218.691 46.888 219.929 46.888C221.401 46.888 222.734 47.2613 223.929 48.008C225.123 48.7547 226.062 49.8213 226.745 51.208C227.449 52.5947 227.801 54.2053 227.801 56.04C227.801 57.8747 227.449 59.496 226.745 60.904C226.062 62.2907 225.123 63.368 223.929 64.136C222.734 64.8827 221.401 65.256 219.929 65.256C218.67 65.256 217.571 65.0107 216.633 64.52C215.694 64.008 214.958 63.336 214.425 62.504V65H208.953V41.32H214.425V49.672ZM222.233 56.04C222.233 54.6747 221.849 53.608 221.081 52.84C220.334 52.0507 219.406 51.656 218.297 51.656C217.209 51.656 216.281 52.0507 215.513 52.84C214.766 53.6293 214.393 54.7067 214.393 56.072C214.393 57.4373 214.766 58.5147 215.513 59.304C216.281 60.0933 217.209 60.488 218.297 60.488C219.385 60.488 220.313 60.0933 221.081 59.304C221.849 58.4933 222.233 57.4053 222.233 56.04ZM238.224 45.288C237.264 45.288 236.474 45.0107 235.856 44.456C235.258 43.88 234.96 43.176 234.96 42.344C234.96 41.4907 235.258 40.7867 235.856 40.232C236.474 39.656 237.264 39.368 238.224 39.368C239.162 39.368 239.93 39.656 240.528 40.232C241.146 40.7867 241.456 41.4907 241.456 42.344C241.456 43.176 241.146 43.88 240.528 44.456C239.93 45.0107 239.162 45.288 238.224 45.288ZM240.944 47.144V65H235.472V47.144H240.944ZM255.181 41.32V65H249.709V41.32H255.181ZM280.778 55.784C280.778 56.296 280.746 56.8293 280.682 57.384H268.298C268.384 58.4933 268.736 59.3467 269.354 59.944C269.994 60.52 270.773 60.808 271.69 60.808C273.056 60.808 274.005 60.232 274.538 59.08H280.362C280.064 60.2533 279.52 61.3093 278.73 62.248C277.962 63.1867 276.992 63.9227 275.818 64.456C274.645 64.9893 273.333 65.256 271.882 65.256C270.133 65.256 268.576 64.8827 267.21 64.136C265.845 63.3893 264.778 62.3227 264.01 60.936C263.242 59.5493 262.858 57.928 262.858 56.072C262.858 54.216 263.232 52.5947 263.978 51.208C264.746 49.8213 265.813 48.7547 267.178 48.008C268.544 47.2613 270.112 46.888 271.882 46.888C273.61 46.888 275.146 47.2507 276.49 47.976C277.834 48.7013 278.88 49.736 279.626 51.08C280.394 52.424 280.778 53.992 280.778 55.784ZM275.178 54.344C275.178 53.4053 274.858 52.6587 274.218 52.104C273.578 51.5493 272.778 51.272 271.818 51.272C270.901 51.272 270.122 51.5387 269.482 52.072C268.864 52.6053 268.48 53.3627 268.33 54.344H275.178ZM314.031 61.032H305.647L304.303 65H298.575L306.703 42.536H313.039L321.167 65H315.375L314.031 61.032ZM312.623 56.808L309.839 48.584L307.087 56.808H312.623ZM327.352 56.04C327.352 54.2053 327.694 52.5947 328.376 51.208C329.08 49.8213 330.03 48.7547 331.224 48.008C332.419 47.2613 333.752 46.888 335.224 46.888C336.398 46.888 337.464 47.1333 338.424 47.624C339.406 48.1147 340.174 48.776 340.728 49.608V41.32H346.2V65H340.728V62.44C340.216 63.2933 339.48 63.976 338.52 64.488C337.582 65 336.483 65.256 335.224 65.256C333.752 65.256 332.419 64.8827 331.224 64.136C330.03 63.368 329.08 62.2907 328.376 60.904C327.694 59.496 327.352 57.8747 327.352 56.04ZM340.728 56.072C340.728 54.7067 340.344 53.6293 339.576 52.84C338.83 52.0507 337.912 51.656 336.824 51.656C335.736 51.656 334.808 52.0507 334.04 52.84C333.294 53.608 332.92 54.6747 332.92 56.04C332.92 57.4053 333.294 58.4933 334.04 59.304C334.808 60.0933 335.736 60.488 336.824 60.488C337.912 60.488 338.83 60.0933 339.576 59.304C340.344 58.5147 340.728 57.4373 340.728 56.072ZM377.743 46.952C379.962 46.952 381.722 47.624 383.023 48.968C384.346 50.312 385.007 52.1787 385.007 54.568V65H379.567V55.304C379.567 54.152 379.258 53.2667 378.639 52.648C378.042 52.008 377.21 51.688 376.143 51.688C375.076 51.688 374.234 52.008 373.615 52.648C373.018 53.2667 372.719 54.152 372.719 55.304V65H367.279V55.304C367.279 54.152 366.97 53.2667 366.351 52.648C365.754 52.008 364.922 51.688 363.855 51.688C362.788 51.688 361.946 52.008 361.327 52.648C360.73 53.2667 360.431 54.152 360.431 55.304V65H354.959V47.144H360.431V49.384C360.986 48.6373 361.711 48.0507 362.607 47.624C363.503 47.176 364.516 46.952 365.647 46.952C366.991 46.952 368.186 47.24 369.231 47.816C370.298 48.392 371.13 49.2133 371.727 50.28C372.346 49.2987 373.188 48.4987 374.255 47.88C375.322 47.2613 376.484 46.952 377.743 46.952ZM396.386 45.288C395.426 45.288 394.637 45.0107 394.018 44.456C393.421 43.88 393.122 43.176 393.122 42.344C393.122 41.4907 393.421 40.7867 394.018 40.232C394.637 39.656 395.426 39.368 396.386 39.368C397.325 39.368 398.093 39.656 398.69 40.232C399.309 40.7867 399.618 41.4907 399.618 42.344C399.618 43.176 399.309 43.88 398.69 44.456C398.093 45.0107 397.325 45.288 396.386 45.288ZM399.106 47.144V65H393.634V47.144H399.106ZM418.752 46.952C420.842 46.952 422.506 47.6347 423.744 49C425.002 50.344 425.632 52.2 425.632 54.568V65H420.192V55.304C420.192 54.1093 419.882 53.1813 419.264 52.52C418.645 51.8587 417.813 51.528 416.768 51.528C415.722 51.528 414.89 51.8587 414.272 52.52C413.653 53.1813 413.344 54.1093 413.344 55.304V65H407.872V47.144H413.344V49.512C413.898 48.7227 414.645 48.104 415.584 47.656C416.522 47.1867 417.578 46.952 418.752 46.952Z" fill="#232F68"/>
</svg>
