<svg width="312" height="128" viewBox="0 0 312 128" fill="none" xmlns="http://www.w3.org/2000/svg">
<path d="M41.1485 128C40.7195 128 40.286 127.922 39.8688 127.76C38.4063 127.192 37.4928 125.728 37.626 124.164L41.2565 81.5212H4.01226C2.85026 81.5212 1.7625 80.9505 1.10225 79.9942C0.442005 79.038 0.293504 77.8188 0.705255 76.732L28.9068 2.28375C29.4275 0.90925 30.744 0 32.2135 0H90.3593C91.545 0 92.651 0.594 93.3063 1.582C93.9615 2.57 94.0783 3.82075 93.6168 4.91225L81.2668 34.1398H107.988C109.336 34.1398 110.566 34.9058 111.161 36.1147C111.756 37.3237 111.612 38.7663 110.79 39.8338L98.5848 55.6808C97.393 57.2285 95.1728 57.516 93.6255 56.3247C92.078 55.133 91.7898 52.9128 92.9815 51.3655L100.801 41.2125H75.9333C74.7475 41.2125 73.6415 40.6185 72.9863 39.6305C72.331 38.6425 72.2143 37.3918 72.6758 36.3003L85.0263 7.07225H34.6558L9.13301 74.4485H45.1065C46.0968 74.4485 47.0413 74.8637 47.711 75.5925C48.3808 76.3217 48.7143 77.298 48.63 78.2845L45.6943 112.767L76.185 73.176C77.377 71.6285 79.597 71.3407 81.1443 72.532C82.6918 73.7237 82.9798 75.944 81.7883 77.4912L43.9508 126.621C43.2665 127.51 42.2223 128 41.1485 128Z" fill="#232F68"/>
<path d="M60.5066 63.84H24.4958L41.9814 17.681H68.7649L54.3391 51.821H78.6931L56.8856 84.505L60.5066 63.84Z" fill="#02A09A"/>
<path d="M56.8844 88.0415C56.4444 88.0415 55.9994 87.9595 55.5706 87.7875C54.0181 87.1658 53.1136 85.5418 53.4021 83.8945L56.2969 67.3763H24.4961C23.3341 67.3763 22.2464 66.8055 21.5861 65.8493C20.9259 64.893 20.7774 63.6738 21.1891 62.5873L38.6741 16.4283C39.1946 15.0538 40.5111 14.1445 41.9811 14.1445H68.7649C69.9506 14.1445 71.0566 14.7385 71.7119 15.7265C72.3671 16.7145 72.4839 17.9653 72.0221 19.0568L59.6721 48.2843H78.6931C79.9974 48.2843 81.1961 49.0025 81.8109 50.1525C82.4261 51.3025 82.3584 52.6983 81.6344 53.783L59.8264 86.4673C59.1544 87.4748 58.0381 88.0415 56.8844 88.0415ZM29.6164 60.3038H60.5064C61.5509 60.3038 62.5421 60.7655 63.2141 61.5655C63.8856 62.3655 64.1696 63.4218 63.9894 64.4503L63.2679 68.5678L72.0826 55.357H54.3391C53.1534 55.357 52.0469 54.763 51.3921 53.775C50.7371 52.787 50.6206 51.5363 51.0821 50.4448L63.4319 21.2173H44.4231L29.6164 60.3038Z" fill="#232F68"/>
<path d="M89.008 72.92C89.008 70.856 89.392 69.044 90.16 67.484C90.952 65.924 92.02 64.724 93.364 63.884C94.708 63.044 96.208 62.624 97.864 62.624C99.28 62.624 100.516 62.912 101.572 63.488C102.652 64.064 103.48 64.82 104.056 65.756V62.912H110.212V83H104.056V80.156C103.456 81.092 102.616 81.848 101.536 82.424C100.48 83 99.244 83.288 97.828 83.288C96.196 83.288 94.708 82.868 93.364 82.028C92.02 81.164 90.952 79.952 90.16 78.392C89.392 76.808 89.008 74.984 89.008 72.92ZM104.056 72.956C104.056 71.42 103.624 70.208 102.76 69.32C101.92 68.432 100.888 67.988 99.664 67.988C98.44 67.988 97.396 68.432 96.532 69.32C95.692 70.184 95.272 71.384 95.272 72.92C95.272 74.456 95.692 75.68 96.532 76.592C97.396 77.48 98.44 77.924 99.664 77.924C100.888 77.924 101.92 77.48 102.76 76.592C103.624 75.704 104.056 74.492 104.056 72.956ZM126.222 65.756C126.822 64.82 127.65 64.064 128.706 63.488C129.762 62.912 130.998 62.624 132.414 62.624C134.07 62.624 135.57 63.044 136.914 63.884C138.258 64.724 139.314 65.924 140.082 67.484C140.874 69.044 141.27 70.856 141.27 72.92C141.27 74.984 140.874 76.808 140.082 78.392C139.314 79.952 138.258 81.164 136.914 82.028C135.57 82.868 134.07 83.288 132.414 83.288C131.022 83.288 129.786 83 128.706 82.424C127.65 81.848 126.822 81.104 126.222 80.192V92.576H120.066V62.912H126.222V65.756ZM135.006 72.92C135.006 71.384 134.574 70.184 133.71 69.32C132.87 68.432 131.826 67.988 130.578 67.988C129.354 67.988 128.31 68.432 127.446 69.32C126.606 70.208 126.186 71.42 126.186 72.956C126.186 74.492 126.606 75.704 127.446 76.592C128.31 77.48 129.354 77.924 130.578 77.924C131.802 77.924 132.846 77.48 133.71 76.592C134.574 75.68 135.006 74.456 135.006 72.92ZM191.548 57.728V83H185.392V67.844L179.74 83H174.772L169.084 67.808V83H162.928V57.728H170.2L177.292 75.224L184.312 57.728H191.548ZM210.519 83.288C208.551 83.288 206.775 82.868 205.191 82.028C203.631 81.188 202.395 79.988 201.483 78.428C200.595 76.868 200.151 75.044 200.151 72.956C200.151 70.892 200.607 69.08 201.519 67.52C202.431 65.936 203.679 64.724 205.263 63.884C206.847 63.044 208.623 62.624 210.591 62.624C212.559 62.624 214.335 63.044 215.919 63.884C217.503 64.724 218.751 65.936 219.663 67.52C220.575 69.08 221.031 70.892 221.031 72.956C221.031 75.02 220.563 76.844 219.627 78.428C218.715 79.988 217.455 81.188 215.847 82.028C214.263 82.868 212.487 83.288 210.519 83.288ZM210.519 77.96C211.695 77.96 212.691 77.528 213.507 76.664C214.347 75.8 214.767 74.564 214.767 72.956C214.767 71.348 214.359 70.112 213.543 69.248C212.751 68.384 211.767 67.952 210.591 67.952C209.391 67.952 208.395 68.384 207.603 69.248C206.811 70.088 206.415 71.324 206.415 72.956C206.415 74.564 206.799 75.8 207.567 76.664C208.359 77.528 209.343 77.96 210.519 77.96ZM235.853 65.756C236.429 64.82 237.257 64.064 238.337 63.488C239.417 62.912 240.653 62.624 242.045 62.624C243.701 62.624 245.201 63.044 246.545 63.884C247.889 64.724 248.945 65.924 249.713 67.484C250.505 69.044 250.901 70.856 250.901 72.92C250.901 74.984 250.505 76.808 249.713 78.392C248.945 79.952 247.889 81.164 246.545 82.028C245.201 82.868 243.701 83.288 242.045 83.288C240.629 83.288 239.393 83.012 238.337 82.46C237.281 81.884 236.453 81.128 235.853 80.192V83H229.697V56.36H235.853V65.756ZM244.637 72.92C244.637 71.384 244.205 70.184 243.341 69.32C242.501 68.432 241.457 67.988 240.209 67.988C238.985 67.988 237.941 68.432 237.077 69.32C236.237 70.208 235.817 71.42 235.817 72.956C235.817 74.492 236.237 75.704 237.077 76.592C237.941 77.48 238.985 77.924 240.209 77.924C241.433 77.924 242.477 77.48 243.341 76.592C244.205 75.68 244.637 74.456 244.637 72.92ZM262.626 60.824C261.546 60.824 260.658 60.512 259.962 59.888C259.29 59.24 258.954 58.448 258.954 57.512C258.954 56.552 259.29 55.76 259.962 55.136C260.658 54.488 261.546 54.164 262.626 54.164C263.682 54.164 264.546 54.488 265.218 55.136C265.914 55.76 266.262 56.552 266.262 57.512C266.262 58.448 265.914 59.24 265.218 59.888C264.546 60.512 263.682 60.824 262.626 60.824ZM265.686 62.912V83H259.53V62.912H265.686ZM281.704 56.36V83H275.548V56.36H281.704ZM310.501 72.632C310.501 73.208 310.465 73.808 310.393 74.432H296.461C296.557 75.68 296.953 76.64 297.649 77.312C298.369 77.96 299.245 78.284 300.277 78.284C301.813 78.284 302.881 77.636 303.481 76.34H310.033C309.697 77.66 309.085 78.848 308.197 79.904C307.333 80.96 306.241 81.788 304.921 82.388C303.601 82.988 302.125 83.288 300.493 83.288C298.525 83.288 296.773 82.868 295.237 82.028C293.701 81.188 292.501 79.988 291.637 78.428C290.773 76.868 290.341 75.044 290.341 72.956C290.341 70.868 290.761 69.044 291.601 67.484C292.465 65.924 293.665 64.724 295.201 63.884C296.737 63.044 298.501 62.624 300.493 62.624C302.437 62.624 304.165 63.032 305.677 63.848C307.189 64.664 308.365 65.828 309.205 67.34C310.069 68.852 310.501 70.616 310.501 72.632ZM304.201 71.012C304.201 69.956 303.841 69.116 303.121 68.492C302.401 67.868 301.501 67.556 300.421 67.556C299.389 67.556 298.513 67.856 297.793 68.456C297.097 69.056 296.665 69.908 296.497 71.012H304.201Z" fill="#232F68"/>
</svg>
